<?xml version="1.0" encoding="utf-8"?>
<!-- Generator: Adobe Illustrator 26.4.1, SVG Export Plug-In . SVG Version: 6.00 Build 0)  -->
<svg version="1.1" id="_x31_0" xmlns="http://www.w3.org/2000/svg" xmlns:xlink="http://www.w3.org/1999/xlink" x="0px" y="0px"
	 viewBox="0 0 256 256" style="enable-background:new 0 0 256 256;" xml:space="preserve">
<style type="text/css">
	.st0{fill:#888888;}
</style>
<g>
	<path class="st0" d="M146,187c-2.8,0.3-5.6,0.5-8.4,0.5c-4.1,0-8.2-0.4-12.2-1.1c-4.4-0.8-8.7-2-12.8-3.6c-0.9-0.3-1.7-0.7-2.6-1.1
		l-30.9,30.9c-4.9,4.9-11.6,7.7-18.6,7.7c-6.9,0-13.3-2.6-18-7.5c-9.5-9.9-9.4-25.8,0.3-35.5l33.4-33.4l24.2-24.2
		c0.4-0.4,0.8-0.8,1.2-1.1c0.3-0.3,0.7-0.6,1-0.9c0.9-0.7,1.8-1.3,2.8-1.9c0.3-0.2,0.7-0.4,1-0.6c1-0.5,2-1,3.1-1.4
		c0.4-0.1,0.8-0.3,1.2-0.4c1-0.3,2.1-0.6,3.2-0.8c0.5-0.1,1-0.2,1.5-0.2c0.5-0.1,1-0.1,1.6-0.2c0,0,0,0,0,0c0.5-0.1,1-0.1,1.4-0.1
		c3,0,6,0.6,8.8,1.6c3.4,1.2,6.4,3.2,9,5.8c2.2,2.2,4,4.7,5.2,7.5c0.1,0.3,0.3,0.5,0.4,0.8c1.2-0.5,2.2-1.2,3.2-2.1l18.5-18.5
		c-1.9-2.9-4.2-5.7-6.7-8.2c-2.5-2.5-5.3-4.8-8.2-6.8c-0.7-0.4-1.3-0.9-2-1.3c-2.8-1.7-5.7-3.1-8.6-4.2c-3.3-1.2-6.7-2.2-10.1-2.8
		c-3.2-0.6-6.4-0.8-9.6-0.8c-9.3,0-18.2,2.3-26.2,6.7c-4.5,2.5-8.6,5.6-12.3,9.3l-57,57c-10.5,10.5-16.4,25-16.3,39.9
		c0.1,14.7,5.9,28.4,16.3,38.4c10.2,9.9,23.6,15.3,37.8,15.3c14.6,0,28.3-5.7,38.5-15.9l26.2-26.2L146,187
		C146,187.1,145.9,187.1,146,187L146,187z"/>
	<path class="st0" d="M233.1,21.6c-10.2-9.8-23.6-15.2-37.8-15.2c-14.6,0-28.3,5.6-38.5,15.9l-26.2,26.2L110,68.9c0,0,0.1,0,0.1,0
		L110,69c2.8-0.3,5.6-0.5,8.4-0.5c4.1,0,8.2,0.4,12.2,1.1c4.3,0.8,8.7,2,12.8,3.6c0.9,0.3,1.8,0.7,2.7,1.1l30.9-30.8
		c4.9-4.9,11.6-7.7,18.6-7.7c6.9,0,13.3,2.6,18,7.5c9.5,9.9,9.4,25.8-0.3,35.5l-33.4,33.4l-24.2,24.2c-4.4,4.4-10.3,7-16.6,7.3
		c-0.4,0.1-0.9,0.1-1.4,0.1c-3.1,0-6-0.5-8.8-1.6c-3.4-1.2-6.4-3.2-9-5.8c-2.2-2.2-3.9-4.7-5.2-7.5c-0.1-0.3-0.3-0.6-0.5-0.8
		c-0.9-1.3-2.4-2.1-4-2.1c-1.3,0-2.5,0.5-3.5,1.4l-14.2,14.2c-1.7,1.6-1.9,4.2-0.7,6.1c0.2,0.4,0.5,0.7,0.7,1.1
		c2,2.9,4.2,5.7,6.8,8.2c2.5,2.5,5.3,4.8,8.2,6.7c0.6,0.5,1.3,0.9,2,1.3c2.8,1.7,5.6,3.1,8.6,4.2c3.2,1.2,6.6,2.2,10,2.8
		c3.2,0.6,6.4,0.8,9.6,0.8c9.3,0,18.2-2.3,26.2-6.7c4.5-2.4,8.6-5.5,12.3-9.2l57-57c10.5-10.4,16.4-25,16.3-39.9
		C249.3,45.2,243.5,31.6,233.1,21.6z"/>
</g>
</svg>
