<?xml version="1.0" encoding="utf-8"?>
<!-- Generator: Adobe Illustrator 26.3.1, SVG Export Plug-In . SVG Version: 6.00 Build 0)  -->
<svg version="1.1" id="レイヤー_1" xmlns="http://www.w3.org/2000/svg" xmlns:xlink="http://www.w3.org/1999/xlink" x="0px"
	 y="0px" viewBox="0 0 512 152.8" style="enable-background:new 0 0 512 152.8;" xml:space="preserve">
<style type="text/css">
	.st0{fill:#FFFFFF;}
	.st1{fill:#00D7FB;}
</style>
<path class="st0" d="M101,81c-2.3,1.9-5.9,3-10.3,3.2c-6.6,0.2-14.4-1.6-21.8-5.2c-0.5-0.2-1-0.5-1.5-0.8l-1,1.7
	c0.5,0.3,1.1,0.6,1.7,0.8c7.3,3.5,14.9,5.4,21.5,5.4c0.4,0,0.8,0,1.3,0c5.2-0.2,9.3-1.6,12-4.1L101,81z"/>
<g>
	<g>
		<path class="st1" d="M98.4,79.1c-4.9-3.2-19.8-12.2-19.8-12.2l-0.3-0.2l0.1-0.1c0,0,9.3-15.3,12-20.5c1.6-3.1,5.7-12.5,5.7-12.5
			s-6.4,8.1-8.4,10.9c-3.4,4.9-12.4,20.3-12.4,20.3l-0.1,0.1c-2.3-1.3-16.8-10.1-22.1-13c-2.8-1.5-11.6-5.7-11.6-5.7
			s7.8,5.7,10.5,7.5c5.1,3.2,19.6,11.9,22,13.3l0,0c0,0-16.9,28-22.1,37.6c-1.9,3.6-7.1,14.8-7.1,14.8s7.4-9.9,9.6-13.2
			c6.2-9.2,22.8-37.3,22.8-37.3l0,0l0.3,0.2c0,0,15,8.9,20.1,11.6c3.3,1.8,13.2,6.9,13.2,6.9S101.6,81.1,98.4,79.1z"/>
	</g>
	<g>
		<path class="st1" d="M123.8,96.5l7.4-42.8h12.5c4.4,0,7.6,1,9.8,2.9c2.2,2,3.1,4.7,2.9,8.2c-0.4,4.1-2.9,7.2-7.7,9.3
			c1.9,0.7,3.4,2,4.3,3.8c0.9,1.8,1.3,3.8,1.2,6c-0.3,3.9-1.8,6.9-4.6,9.2c-2.8,2.3-6.4,3.4-10.9,3.4
			C138.7,96.5,123.8,96.5,123.8,96.5z M132.8,76.5l-2.7,15.4h8.7c2.7,0,4.9-0.7,6.7-2.1s2.9-3.4,3.1-5.8c0.3-2.3-0.1-4.1-1.2-5.4
			c-1.1-1.3-2.8-2-5.1-2.1H132.8z M133.6,72h8c2.5,0,4.6-0.6,6.3-1.9s2.7-3,3-5.3c0.3-2.1-0.2-3.7-1.2-4.7c-1.1-1.1-2.8-1.6-5.3-1.7
			H136L133.6,72z"/>
		<path class="st1" d="M165.4,96.5h-5.3l7.8-45.1h5.3L165.4,96.5z"/>
		<path class="st1" d="M194.3,93.4c-2.5,2.6-5.7,3.8-9.5,3.7c-3-0.1-5.3-1.2-6.7-3.3c-1.5-2.1-2-5-1.6-8.6l3.4-20.5h5.3l-3.4,20.6
			c-0.1,0.9-0.1,1.7-0.1,2.5c0.1,1.4,0.5,2.5,1.3,3.3c0.7,0.8,1.8,1.2,3.1,1.3c3.8,0.1,6.7-1.4,8.8-4.6l4-23.2h5.3l-5.5,31.8h-5
			L194.3,93.4z"/>
		<path class="st1" d="M220.3,97.1c-4-0.1-7.1-1.5-9.3-4.4c-2.2-2.8-3.2-6.5-2.8-10.9l0.1-1.3c0.3-3.2,1.3-6,2.8-8.6
			s3.4-4.6,5.6-5.9c2.2-1.3,4.6-2,7.2-1.9c3.3,0.1,5.8,1.2,7.7,3.3c1.9,2.1,2.9,4.9,3.1,8.5c0.1,1.3,0,2.5-0.1,3.8l-0.3,2.4h-20.8
			c-0.4,2.9,0.1,5.3,1.4,7.3c1.3,2,3.2,3.1,5.8,3.1c3.1,0.1,6-1.3,8.7-4.2l3.1,2.6c-1.3,1.9-3.1,3.4-5.2,4.5
			C225.2,96.6,222.9,97.1,220.3,97.1z M223.7,68.6c-2.2-0.1-4.1,0.7-5.7,2.2c-1.6,1.5-2.9,3.8-3.9,6.9h15.5l0.1-0.5
			c0.3-2.5-0.1-4.5-1.2-6.2C227.3,69.5,225.7,68.6,223.7,68.6z"/>
	</g>
	<g>
		<path class="st0" d="M268.4,83.2c-0.4-1.8-1.4-3.3-3.1-4.5s-4.2-2.3-7.7-3.3s-6.1-2.1-7.7-3.2s-2.8-2.3-3.5-3.8
			c-0.7-1.4-0.9-3.1-0.5-4.8c0.3-2.1,1.2-3.9,2.7-5.5c1.4-1.6,3.3-2.8,5.6-3.7c2.3-0.9,4.7-1.3,7.2-1.3s4.8,0.5,6.7,1.6
			c1.9,1.1,3.4,2.6,4.3,4.5s1.2,4.1,0.9,6.5h-1.6c0.5-3.2-0.2-5.8-2.2-7.9s-4.6-3.1-8.1-3.1c-3.2,0-6.1,0.7-8.7,2.2s-4.2,3.4-5,5.7
			c-0.4,1.4-0.5,2.7-0.2,3.8c0.4,1.7,1.5,3.2,3.2,4.3c1.8,1.1,4.2,2.2,7.3,3c4.8,1.4,8.1,3,10,5s2.6,4.4,2.1,7.3
			c-0.3,2.2-1.2,4.1-2.7,5.7s-3.4,2.9-5.7,3.8c-2.3,0.9-4.8,1.4-7.4,1.4c-4.5,0-7.9-1.2-10.4-3.5s-3.4-5.4-2.9-9.2h1.6
			c-0.5,3.4,0.3,6.1,2.5,8.1s5.2,3,9.2,3c3.2,0,6.1-0.7,8.7-2.1s4.3-3.3,5.2-5.7C268.6,86.1,268.7,84.6,268.4,83.2z"/>
		<path class="st0" d="M286.2,95.5c2.8,0,5.2-0.8,7.2-2.4s3.4-3.7,4.1-6.2h1.6c-0.7,3-2.2,5.5-4.6,7.4s-5.1,2.8-8.3,2.8
			c-2.9,0-5.3-0.9-7.1-2.7c-1.8-1.8-2.9-4.3-3.3-7.5c-0.2-1.9-0.2-3.7,0.1-5.6l0.2-1.2c0.5-3.1,1.5-5.9,2.9-8.4s3.2-4.3,5.2-5.6
			c2-1.3,4.3-1.9,6.8-1.9c3.2,0,5.7,1,7.5,3.1s2.6,4.7,2.4,8h-1.6c0.3-2.8-0.4-5.1-2-6.9s-3.7-2.6-6.4-2.6c-3.7,0-6.8,1.5-9.2,4.5
			c-2.4,3-3.9,7.1-4.5,12.2l-0.1,2.1c0,3.4,0.8,6.1,2.3,8.1C281.2,94.5,283.4,95.5,286.2,95.5z"/>
		<path class="st0" d="M324.3,65.9l-1.9-0.1c-2.6,0-5.1,1-7.3,2.9c-2.3,1.9-3.8,4.3-4.5,7.1L307,96.6h-1.6l5.5-31.8h1.6l-1.2,6.6
			c1.3-2.3,3-4,4.9-5.3s4.1-1.9,6.4-1.9c0.7,0,1.5,0.1,2.2,0.4L324.3,65.9z"/>
		<path class="st0" d="M327.1,96.5h-1.6l5.5-31.8h1.6L327.1,96.5z M332,54.7c0.1-0.4,0.3-0.8,0.6-1.1c0.4-0.3,0.7-0.5,1.2-0.5
			s0.8,0.2,1.1,0.5c0.3,0.4,0.4,0.7,0.3,1.2c-0.1,0.4-0.3,0.7-0.6,1.1c-0.4,0.3-0.8,0.5-1.2,0.5c-0.5,0-0.8-0.2-1.1-0.5
			C332,55.5,331.9,55.1,332,54.7z"/>
		<path class="st0" d="M349.5,97.1c-2.3,0-4.2-0.5-5.9-1.5c-1.7-1-2.9-2.3-3.7-4.1l-3,17.2h-1.6l7.6-44h1.6l-1.1,5.7
			c1.4-1.9,3.1-3.4,5-4.5s4.1-1.7,6.5-1.7c2.1,0,3.8,0.5,5.3,1.5c1.4,1,2.5,2.5,3.2,4.5s1,4.1,0.9,6.5c-0.1,1.3-0.2,2.5-0.4,3.6
			l-0.4,1.9c-1,4.6-2.8,8.2-5.2,10.9S352.9,97.1,349.5,97.1z M362.3,80.3l0.4-3.1c0.2-3.7-0.4-6.6-1.7-8.5c-1.4-1.9-3.3-2.9-6-2.9
			c-2.6,0-5,0.8-7.3,2.3s-3.8,3.4-4.6,5.7l-2.6,14.9c0.5,2.2,1.5,3.9,3.2,5.1s3.7,1.8,6,1.8c3.2,0,5.9-1.3,8.1-3.9s3.7-6.2,4.6-10.8
			L362.3,80.3z"/>
		<path class="st0" d="M380.2,56.1l-1.5,8.6h7l-0.2,1.6h-7.1l-4,23.3l-0.1,1.6c-0.1,1.3,0.2,2.4,0.8,3.1s1.5,1.1,2.8,1.2
			c0.5,0,1.6-0.1,3.2-0.3l0.1,1.5c-0.9,0.2-2,0.4-3.2,0.4c-3.3,0-5.1-1.7-5.2-5.1c0-1,0-2,0.2-3.1l3.9-22.6h-5.7l0.2-1.6h5.7
			l1.5-8.6C378.6,56.1,380.2,56.1,380.2,56.1z"/>
		<path class="st0" d="M409.1,96.5l1-5.1c-1.4,1.9-3.1,3.4-5.1,4.3c-2,1-4.2,1.4-6.5,1.4c-2.5,0-4.4-0.7-5.9-2
			c-1.4-1.3-2.3-3.2-2.5-5.6c-0.1-1.5-0.1-3.1,0.2-4.8l3.4-20h1.6L391.9,85c-0.2,1.3-0.3,2.6-0.2,3.9c0.1,2.1,0.7,3.8,1.9,4.9
			c1.2,1.2,2.8,1.7,4.9,1.7c2.9,0,5.4-0.8,7.7-2.3s3.8-3.6,4.5-6.1l3.8-22.4h1.6l-5.5,31.8H409.1z"/>
		<path class="st0" d="M439.7,65.9l-1.9-0.1c-2.6,0-5.1,1-7.3,2.9c-2.3,1.9-3.8,4.3-4.5,7.1l-3.6,20.8h-1.6l5.5-31.8h1.6l-1.2,6.6
			c1.3-2.3,3-4,4.9-5.3s4.1-1.9,6.4-1.9c0.7,0,1.5,0.1,2.2,0.4L439.7,65.9z"/>
		<path class="st0" d="M452.1,97.1c-2.5,0-4.7-0.7-6.6-2.1c-1.8-1.4-3.2-3.4-4-5.9s-1-5.1-0.6-7.8l0.2-1.5c0.5-2.9,1.5-5.5,3-8
			s3.4-4.4,5.5-5.7c2.1-1.3,4.4-2,6.8-2c3.2,0,5.7,1.2,7.6,3.6c1.8,2.4,2.6,5.4,2.3,9.1l-0.1,0.9l-0.3,1.9h-23.1l-0.3,1.7
			c-0.3,1.6-0.3,3.3,0,5c0.4,2.8,1.5,5,3.2,6.7s3.8,2.5,6.4,2.5c3.7,0,7-1.4,9.9-4.3l1.1,0.8C460.2,95.4,456.5,97.1,452.1,97.1z
			 M456.5,65.7c-3,0-5.7,1.1-8.1,3.4s-4.1,5.2-5.3,8.9h21.5l0.1-0.4c0.3-1.4,0.3-2.8,0.1-4.2c-0.4-2.3-1.3-4.2-2.7-5.6
			C460.4,66.4,458.6,65.7,456.5,65.7z"/>
	</g>
</g>
<path class="st0" d="M101.8,63.2c-4.1-5.6-10.6-10.7-18.4-14.5c-16.2-7.8-32.9-7-37.2,1.8c-4.1,8.5,4.8,21.5,20,29.4l1-1.7
	C53,70.7,44.4,58.9,48.1,51.4c2-4.1,7.1-6.1,13.7-6.1c6.1,0,13.5,1.7,20.7,5.3c7.5,3.6,13.7,8.5,17.7,13.9c3.8,5.1,4.9,10,3.1,13.7
	c-0.5,1.1-1.3,2.1-2.3,2.9l1.8,1.1c1-0.9,1.8-2,2.4-3.2C107.2,74.5,106.1,68.9,101.8,63.2z"/>
</svg>
