<?xml version="1.0" encoding="utf-8"?>
<!-- Generator: Adobe Illustrator 26.3.1, SVG Export Plug-In . SVG Version: 6.00 Build 0)  -->
<svg version="1.1" id="レイヤー_1" xmlns="http://www.w3.org/2000/svg" xmlns:xlink="http://www.w3.org/1999/xlink" x="0px"
	 y="0px" viewBox="0 0 512 512" style="enable-background:new 0 0 512 512;" xml:space="preserve">
<style type="text/css">
	.st0{fill:#FFFFFF;}
</style>
<g>
	<path class="st0" d="M345.8,199.4H166.2c-3.6,0-6.4-2.9-6.4-6.4s2.9-6.4,6.4-6.4h179.5c3.6,0,6.4,2.9,6.4,6.4
		S349.3,199.4,345.8,199.4z"/>
	<path class="st0" d="M345.8,262.4H166.2c-3.6,0-6.4-2.9-6.4-6.4s2.9-6.4,6.4-6.4h179.5c3.6,0,6.4,2.9,6.4,6.4
		S349.3,262.4,345.8,262.4z"/>
	<path class="st0" d="M345.8,325.5H166.2c-3.6,0-6.4-2.9-6.4-6.4s2.9-6.4,6.4-6.4h179.5c3.6,0,6.4,2.9,6.4,6.4
		S349.3,325.5,345.8,325.5z"/>
</g>
</svg>
