<?xml version="1.0" encoding="utf-8"?>
<!-- Generator: Adobe Illustrator 26.4.1, SVG Export Plug-In . SVG Version: 6.00 Build 0)  -->
<svg version="1.1" id="Logo" xmlns="http://www.w3.org/2000/svg" xmlns:xlink="http://www.w3.org/1999/xlink" x="0px" y="0px"
	 viewBox="0 0 256 256" style="enable-background:new 0 0 256 256;" xml:space="preserve">
<style type="text/css">
	.st0{fill:#888888;}
</style>
<g id="Logo_1_">
	<path id="white_background" class="st0" d="M225.9,77.8c0.1,2.2,0.1,4.3,0.1,6.5C226,151,175.2,228,82.3,228v0
		c-27.4,0-54.3-7.8-77.4-22.6c4,0.5,8,0.7,12,0.7c22.7,0,44.8-7.6,62.7-21.7c-21.6-0.4-40.6-14.5-47.2-35.1
		c7.6,1.5,15.4,1.2,22.8-0.9C31.7,143.7,14.8,123,14.8,99c0-0.2,0-0.4,0-0.6c7,3.9,14.9,6.1,22.9,6.3c-22.2-14.8-29-44.3-15.6-67.4
		C47.7,68.8,85.5,87.9,126.1,90c-4.1-17.5,1.5-35.9,14.6-48.3c20.3-19.1,52.3-18.1,71.4,2.2c11.3-2.2,22.1-6.4,32.1-12.3
		c-3.8,11.7-11.7,21.6-22.2,27.9c10-1.2,19.8-3.9,29-8C244.3,61.8,235.8,70.6,225.9,77.8z"/>
</g>
</svg>
